<?xml version="1.0" encoding="utf-8"?>
<!-- Generator: Adobe Illustrator 25.4.1, SVG Export Plug-In . SVG Version: 6.00 Build 0)  -->
<svg version="1.1" id="Layer_1" xmlns="http://www.w3.org/2000/svg" xmlns:xlink="http://www.w3.org/1999/xlink" x="0px" y="0px"
	 viewBox="0 0 145.7 35.9" style="enable-background:new 0 0 145.7 35.9;" xml:space="preserve">
<style type="text/css">
	.fill-color{fill:#45775D;}
</style>
<path class="fill-color" d="M80.8,18.4h63.9v2H80.8V18.4z"/>
<g class="fill-color">
	<path d="M2.2,19.1c-0.6,0-1.2-0.1-1.6-0.2v-2c0.5,0.1,1,0.2,1.4,0.2c1.3,0,1.9-0.8,1.9-2.4V0.8h2.3v13.8c0,1.5-0.3,2.6-1,3.3
		S3.6,19.1,2.2,19.1z"/>
	<path d="M10.4,15.1V0.8h2.3v14.3H10.4z"/>
	<path d="M16.9,15.1V0.8h2.3v12.3h6v2H16.9z"/>
	<path d="M28.2,15.1V0.8h2.3v12.3h6v2H28.2z"/>
	<path d="M39.4,15.1V0.8h2.3v14.3H39.4z"/>
	<path d="M54.8,15.1l-1.4-4h-5.5l-1.4,4H44l5.3-14.3h2.5l5.3,14.3H54.8z M52.7,9.1l-1.3-3.9C51.3,5,51.2,4.6,51,4s-0.3-1-0.4-1.2
		c-0.2,0.8-0.4,1.7-0.8,2.6l-1.3,3.7H52.7z"/>
	<path d="M71.4,15.1h-2.9l-7-11.4h-0.1l0,0.6c0.1,1.2,0.1,2.3,0.1,3.3v7.4h-2.1V0.8h2.8l7,11.3h0.1c0-0.1,0-0.7-0.1-1.6
		s-0.1-1.7-0.1-2.2V0.8h2.1V15.1z"/>
	<path d="M83.5,9.4v5.7h-2.3V0.8h4c1.8,0,3.2,0.3,4.1,1s1.3,1.7,1.3,3.1c0,1.8-0.9,3-2.8,3.8l4,6.3h-2.7l-3.4-5.7H83.5z M83.5,7.5
		h1.6c1.1,0,1.9-0.2,2.4-0.6s0.7-1,0.7-1.8c0-0.8-0.3-1.4-0.8-1.7s-1.3-0.5-2.4-0.5h-1.5V7.5z"/>
	<path d="M105.6,0.8v9.2c0,1.1-0.2,2-0.7,2.8s-1.1,1.4-2,1.8s-1.9,0.6-3.1,0.6c-1.8,0-3.1-0.5-4.1-1.4s-1.5-2.2-1.5-3.9V0.8h2.3v9
		c0,1.2,0.3,2,0.8,2.6s1.4,0.8,2.5,0.8c2.2,0,3.3-1.2,3.3-3.5v-9H105.6z"/>
	<path d="M117.9,11.2c0,1.3-0.5,2.3-1.4,3s-2.2,1.1-3.8,1.1s-2.9-0.3-4-0.8v-2.2c0.7,0.3,1.3,0.5,2.1,0.7s1.4,0.3,2,0.3
		c0.9,0,1.6-0.2,2-0.5s0.7-0.8,0.7-1.4c0-0.5-0.2-1-0.6-1.4s-1.2-0.8-2.5-1.3c-1.3-0.5-2.2-1.1-2.8-1.8s-0.8-1.5-0.8-2.4
		c0-1.2,0.4-2.1,1.3-2.8s2-1,3.4-1c1.4,0,2.7,0.3,4.1,0.9l-0.7,1.9c-1.3-0.5-2.4-0.8-3.4-0.8c-0.8,0-1.3,0.2-1.7,0.5
		s-0.6,0.8-0.6,1.3c0,0.4,0.1,0.7,0.2,1s0.4,0.5,0.8,0.7s1,0.5,1.9,0.9c1,0.4,1.8,0.8,2.3,1.2s0.8,0.8,1.1,1.3
		S117.9,10.6,117.9,11.2z"/>
	<path d="M129.3,11.2c0,1.3-0.5,2.3-1.4,3s-2.2,1.1-3.8,1.1s-2.9-0.3-4-0.8v-2.2c0.7,0.3,1.3,0.5,2.1,0.7s1.4,0.3,2,0.3
		c0.9,0,1.6-0.2,2-0.5s0.7-0.8,0.7-1.4c0-0.5-0.2-1-0.6-1.4s-1.2-0.8-2.5-1.3c-1.3-0.5-2.2-1.1-2.8-1.8s-0.8-1.5-0.8-2.4
		c0-1.2,0.4-2.1,1.3-2.8s2-1,3.4-1c1.4,0,2.7,0.3,4.1,0.9l-0.7,1.9c-1.3-0.5-2.4-0.8-3.4-0.8c-0.8,0-1.3,0.2-1.7,0.5
		s-0.6,0.8-0.6,1.3c0,0.4,0.1,0.7,0.2,1s0.4,0.5,0.8,0.7s1,0.5,1.9,0.9c1,0.4,1.8,0.8,2.3,1.2s0.8,0.8,1.1,1.3
		S129.3,10.6,129.3,11.2z"/>
	<path d="M145.1,7.9c0,2.3-0.6,4.1-1.7,5.4s-2.8,1.9-4.9,1.9c-2.2,0-3.8-0.6-5-1.9s-1.7-3.1-1.7-5.5s0.6-4.2,1.7-5.4s2.8-1.9,5-1.9
		c2.1,0,3.8,0.6,4.9,1.9S145.1,5.6,145.1,7.9z M134.2,7.9c0,1.8,0.4,3.1,1.1,4s1.8,1.4,3.2,1.4c1.4,0,2.4-0.4,3.1-1.3s1.1-2.2,1.1-4
		c0-1.8-0.4-3.1-1-4s-1.7-1.4-3.1-1.4c-1.4,0-2.5,0.5-3.2,1.4S134.2,6.2,134.2,7.9z"/>
	<path class="fill-color" d="M6.6,27.6c-1,0-1.8,0.3-2.3,0.9s-0.8,1.5-0.8,2.6c0,1.1,0.3,2,0.8,2.6s1.3,0.9,2.3,0.9c0.7,0,1.3-0.1,1.8-0.3
		v0.5c-0.5,0.2-1.2,0.3-1.9,0.3c-1.1,0-2-0.4-2.6-1.1s-1-1.7-1-3c0-0.8,0.2-1.5,0.5-2.1c0.3-0.6,0.7-1.1,1.3-1.4
		c0.6-0.3,1.2-0.5,2-0.5c0.8,0,1.5,0.1,2.1,0.4l-0.2,0.5C7.9,27.8,7.3,27.6,6.6,27.6z"/>
	<path class="fill-color" d="M16.1,27.2v5.1c0,0.9-0.3,1.6-0.8,2.1s-1.3,0.8-2.2,0.8c-0.9,0-1.6-0.3-2.1-0.8c-0.5-0.5-0.8-1.2-0.8-2.1v-5.1
		h0.6v5.1c0,0.8,0.2,1.3,0.6,1.8c0.4,0.4,1,0.6,1.8,0.6c0.7,0,1.3-0.2,1.7-0.6c0.4-0.4,0.6-1,0.6-1.7v-5.1H16.1z"/>
	<path class="fill-color" d="M19,31.7v3.4h-0.5v-7.9h1.9c1,0,1.7,0.2,2.2,0.5c0.5,0.4,0.7,0.9,0.7,1.6c0,0.5-0.1,1-0.4,1.3
		c-0.3,0.4-0.7,0.6-1.3,0.8l2.1,3.6H23l-2-3.4H19z M19,31.2h1.5c0.7,0,1.2-0.1,1.5-0.4c0.4-0.3,0.5-0.7,0.5-1.3c0-0.6-0.2-1-0.5-1.3
		s-0.9-0.4-1.8-0.4H19V31.2z"/>
	<path class="fill-color" d="M29,32.3h-3.2l-1.1,2.8h-0.6l3.2-7.9h0.3l3.1,7.9h-0.6L29,32.3z M26,31.8h2.8L27.8,29
		c-0.1-0.2-0.2-0.5-0.3-0.9c-0.1,0.3-0.2,0.7-0.3,0.9L26,31.8z"/>
	<path class="fill-color" d="M34.1,35.1h-0.6v-7.3H31v-0.5h5.7v0.5h-2.6V35.1z"/>
	<path class="fill-color" d="M44.6,31.2c0,1.2-0.3,2.2-0.9,3c-0.6,0.7-1.5,1.1-2.6,1.1c-1.1,0-1.9-0.4-2.6-1.1c-0.6-0.7-0.9-1.7-0.9-3
		c0-1.2,0.3-2.2,0.9-3c0.6-0.7,1.5-1.1,2.6-1.1c1.1,0,2,0.4,2.6,1.1C44.3,28.9,44.6,29.9,44.6,31.2z M38.2,31.2c0,1.1,0.3,2,0.8,2.6
		c0.5,0.6,1.2,0.9,2.2,0.9c0.9,0,1.7-0.3,2.2-0.9c0.5-0.6,0.7-1.5,0.7-2.6c0-1.1-0.2-2-0.7-2.6c-0.5-0.6-1.2-0.9-2.2-0.9
		c-0.9,0-1.7,0.3-2.2,0.9C38.5,29.2,38.2,30,38.2,31.2z"/>
	<path class="fill-color" d="M47.2,31.7v3.4h-0.5v-7.9h1.9c1,0,1.7,0.2,2.2,0.5c0.5,0.4,0.7,0.9,0.7,1.6c0,0.5-0.1,1-0.4,1.3
		c-0.3,0.4-0.7,0.6-1.3,0.8l2.1,3.6h-0.7l-2-3.4H47.2z M47.2,31.2h1.5c0.7,0,1.2-0.1,1.5-0.4c0.4-0.3,0.5-0.7,0.5-1.3
		c0-0.6-0.2-1-0.5-1.3s-0.9-0.4-1.8-0.4h-1.3V31.2z"/>
	<path class="fill-color" d="M53.4,35.1v-7.9H54v7.9H53.4z"/>
	<path class="fill-color" d="M60.2,32.3H57l-1.1,2.8h-0.6l3.2-7.9h0.3l3.1,7.9h-0.6L60.2,32.3z M57.2,31.8H60L58.9,29
		c-0.1-0.2-0.2-0.5-0.3-0.9c-0.1,0.3-0.2,0.7-0.3,0.9L57.2,31.8z"/>
	<path class="fill-color" d="M63.2,35.1v-7.9h0.5v7.3h3.7v0.5H63.2z"/>
	<path class="fill-color" d="M75.5,27.6c-1,0-1.8,0.3-2.3,0.9s-0.8,1.5-0.8,2.6c0,1.1,0.3,2,0.8,2.6s1.3,0.9,2.3,0.9c0.7,0,1.3-0.1,1.8-0.3
		v0.5c-0.5,0.2-1.2,0.3-1.9,0.3c-1.1,0-2-0.4-2.6-1.1s-1-1.7-1-3c0-0.8,0.2-1.5,0.5-2.1c0.3-0.6,0.7-1.1,1.3-1.4
		c0.6-0.3,1.2-0.5,2-0.5c0.8,0,1.5,0.1,2.1,0.4l-0.2,0.5C76.7,27.8,76.1,27.6,75.5,27.6z"/>
	<path class="fill-color" d="M85.8,31.2c0,1.2-0.3,2.2-0.9,3c-0.6,0.7-1.5,1.1-2.6,1.1c-1.1,0-1.9-0.4-2.6-1.1c-0.6-0.7-0.9-1.7-0.9-3
		c0-1.2,0.3-2.2,0.9-3c0.6-0.7,1.5-1.1,2.6-1.1c1.1,0,2,0.4,2.6,1.1C85.5,28.9,85.8,29.9,85.8,31.2z M79.4,31.2c0,1.1,0.3,2,0.8,2.6
		c0.5,0.6,1.2,0.9,2.2,0.9c0.9,0,1.7-0.3,2.2-0.9c0.5-0.6,0.7-1.5,0.7-2.6c0-1.1-0.2-2-0.7-2.6c-0.5-0.6-1.2-0.9-2.2-0.9
		c-0.9,0-1.7,0.3-2.2,0.9C79.6,29.2,79.4,30,79.4,31.2z"/>
	<path class="fill-color" d="M93.5,35.1H93l-4.7-7h0c0,0.8,0.1,1.5,0.1,1.9v5.1h-0.5v-7.9h0.5l4.6,7h0c0-0.6,0-1.3,0-1.8v-5.1h0.5V35.1z"/>
	<path class="fill-color" d="M100.3,33.1c0,0.7-0.2,1.2-0.7,1.6c-0.5,0.4-1.1,0.6-1.9,0.6c-1,0-1.7-0.1-2.2-0.3v-0.5
		c0.6,0.2,1.3,0.4,2.2,0.4c0.6,0,1.2-0.1,1.5-0.4c0.4-0.3,0.6-0.7,0.6-1.2c0-0.3-0.1-0.5-0.2-0.7c-0.1-0.2-0.3-0.4-0.6-0.5
		s-0.7-0.3-1.2-0.5c-0.8-0.3-1.4-0.6-1.7-0.9c-0.3-0.3-0.5-0.7-0.5-1.3c0-0.6,0.2-1.1,0.7-1.4c0.5-0.4,1.1-0.6,1.8-0.6
		c0.7,0,1.4,0.1,2.1,0.4L99.9,28c-0.7-0.3-1.3-0.4-1.9-0.4c-0.6,0-1,0.1-1.4,0.4s-0.5,0.6-0.5,1.1c0,0.3,0.1,0.5,0.2,0.7
		c0.1,0.2,0.3,0.4,0.5,0.5c0.2,0.1,0.7,0.3,1.2,0.5c0.6,0.2,1.1,0.4,1.4,0.6c0.3,0.2,0.5,0.4,0.7,0.7
		C100.3,32.4,100.3,32.7,100.3,33.1z"/>
	<path class="fill-color" d="M108,27.2v5.1c0,0.9-0.3,1.6-0.8,2.1s-1.3,0.8-2.2,0.8c-0.9,0-1.6-0.3-2.1-0.8c-0.5-0.5-0.8-1.2-0.8-2.1v-5.1
		h0.6v5.1c0,0.8,0.2,1.3,0.6,1.8c0.4,0.4,1,0.6,1.8,0.6c0.7,0,1.3-0.2,1.7-0.6c0.4-0.4,0.6-1,0.6-1.7v-5.1H108z"/>
	<path class="fill-color" d="M110.3,35.1v-7.9h0.5v7.3h3.7v0.5H110.3z"/>
	<path class="fill-color" d="M118.3,35.1h-0.6v-7.3h-2.6v-0.5h5.7v0.5h-2.6V35.1z"/>
	<path class="fill-color" d="M122.2,35.1v-7.9h0.5v7.9H122.2z"/>
	<path class="fill-color" d="M130.9,35.1h-0.6l-4.7-7h0c0,0.8,0.1,1.5,0.1,1.9v5.1h-0.5v-7.9h0.5l4.6,7h0c0-0.6,0-1.3,0-1.8v-5.1h0.5V35.1z
		"/>
	<path class="fill-color" d="M136.4,31.1h2.9v3.6c-0.8,0.3-1.6,0.5-2.6,0.5c-1.2,0-2.2-0.4-2.8-1c-0.7-0.7-1-1.7-1-3c0-0.8,0.2-1.5,0.5-2.1
		c0.3-0.6,0.8-1.1,1.4-1.4c0.6-0.3,1.3-0.5,2.1-0.5c0.9,0,1.6,0.2,2.3,0.5l-0.2,0.5c-0.7-0.3-1.4-0.5-2.1-0.5c-1,0-1.9,0.3-2.5,1
		c-0.6,0.6-0.9,1.5-0.9,2.6c0,1.2,0.3,2.1,0.9,2.7c0.6,0.6,1.4,0.9,2.5,0.9c0.7,0,1.3-0.1,1.8-0.3v-2.8h-2.3V31.1z"/>
</g>
</svg>
