<svg id="Layer_1" data-name="Layer 1" xmlns="http://www.w3.org/2000/svg" viewBox="0 0 145.69 35.89"><defs><style>.cls-1{fill:#747f8a;}</style></defs><path d="M80.78,18.38h63.86v2H80.78Z"/><path d="M2.25,19.08a4.57,4.57,0,0,1-1.6-.24v-2a6.26,6.26,0,0,0,1.42.2c1.28,0,1.91-.81,1.91-2.42V.82H6.33V14.58a4.89,4.89,0,0,1-1,3.35A3.88,3.88,0,0,1,2.25,19.08Z"/><path d="M10.43,15.1V.82h2.33V15.1Z"/><path d="M16.93,15.1V.82h2.34V13.1h6v2Z"/><path d="M28.17,15.1V.82h2.34V13.1h6v2Z"/><path d="M39.41,15.1V.82h2.34V15.1Z"/><path d="M54.77,15.1l-1.42-4H47.89l-1.4,4H44L49.37.76h2.54L57.25,15.1Zm-2-6L51.4,5.23C51.3,5,51.16,4.56,51,4s-.29-1-.36-1.23a20.65,20.65,0,0,1-.77,2.63L48.57,9.12Z"/><path d="M71.43,15.1H68.57l-7-11.38h-.08l.05.64c.09,1.21.14,2.31.14,3.32V15.1H59.54V.82h2.83l7,11.32h.06c0-.15,0-.7-.08-1.64s-.06-1.67-.06-2.2V.82h2.14Z"/><path d="M83.53,9.4v5.7H81.2V.82h4a6.61,6.61,0,0,1,4.09,1A3.7,3.7,0,0,1,90.65,5a3.9,3.9,0,0,1-2.77,3.8l4,6.32H89.26L85.84,9.4Zm0-1.94h1.62a3.75,3.75,0,0,0,2.37-.6,2.21,2.21,0,0,0,.73-1.8,1.93,1.93,0,0,0-.79-1.74,4.35,4.35,0,0,0-2.38-.53H83.53Z"/><path d="M105.57.82v9.24a5.42,5.42,0,0,1-.68,2.77,4.44,4.44,0,0,1-2,1.82,6.76,6.76,0,0,1-3.07.64,5.77,5.77,0,0,1-4.13-1.4A5.12,5.12,0,0,1,94.25,10V.82H96.6v9a3.6,3.6,0,0,0,.82,2.61,3.39,3.39,0,0,0,2.52.84c2.2,0,3.3-1.15,3.3-3.47v-9Z"/><path d="M117.86,11.22a3.59,3.59,0,0,1-1.38,3,6,6,0,0,1-3.8,1.08,9.08,9.08,0,0,1-4-.75V12.33a10.79,10.79,0,0,0,2.07.73,9.13,9.13,0,0,0,2,.26,3.19,3.19,0,0,0,2-.53,1.71,1.71,0,0,0,.66-1.41,1.78,1.78,0,0,0-.6-1.36,9.35,9.35,0,0,0-2.5-1.32,6.79,6.79,0,0,1-2.76-1.8,3.88,3.88,0,0,1-.8-2.45,3.43,3.43,0,0,1,1.27-2.81,5.31,5.31,0,0,1,3.41-1,10.12,10.12,0,0,1,4.08.89l-.74,1.91a8.8,8.8,0,0,0-3.4-.8,2.61,2.61,0,0,0-1.72.49,1.61,1.61,0,0,0-.58,1.3,1.92,1.92,0,0,0,.23,1,2.49,2.49,0,0,0,.77.74,12.35,12.35,0,0,0,1.94.93,10.59,10.59,0,0,1,2.3,1.22,3.68,3.68,0,0,1,1.08,1.28A4,4,0,0,1,117.86,11.22Z"/><path d="M129.25,11.22a3.61,3.61,0,0,1-1.37,3,6,6,0,0,1-3.8,1.08,9.1,9.1,0,0,1-4-.75V12.33a10.89,10.89,0,0,0,2.08.73,9,9,0,0,0,2,.26,3.2,3.2,0,0,0,2-.53,1.71,1.71,0,0,0,.66-1.41,1.75,1.75,0,0,0-.61-1.36,9,9,0,0,0-2.5-1.32,6.67,6.67,0,0,1-2.75-1.8,3.88,3.88,0,0,1-.8-2.45,3.4,3.4,0,0,1,1.27-2.81,5.29,5.29,0,0,1,3.41-1,10.15,10.15,0,0,1,4.08.89l-.74,1.91a8.84,8.84,0,0,0-3.4-.8,2.59,2.59,0,0,0-1.72.49,1.62,1.62,0,0,0-.59,1.3,1.82,1.82,0,0,0,.24,1,2.29,2.29,0,0,0,.77.74,12.13,12.13,0,0,0,1.93.93,10.71,10.71,0,0,1,2.31,1.22,3.65,3.65,0,0,1,1.07,1.28A3.85,3.85,0,0,1,129.25,11.22Z"/><path d="M145.09,7.94a7.83,7.83,0,0,1-1.74,5.42,7.33,7.33,0,0,1-9.9,0,7.81,7.81,0,0,1-1.74-5.45,7.74,7.74,0,0,1,1.75-5.43,6.42,6.42,0,0,1,5-1.89,6.27,6.27,0,0,1,4.92,1.92A7.79,7.79,0,0,1,145.09,7.94Zm-10.9,0a6.4,6.4,0,0,0,1.07,4,4.33,4.33,0,0,0,6.29,0,6.36,6.36,0,0,0,1.06-4,6.4,6.4,0,0,0-1.05-4,3.7,3.7,0,0,0-3.13-1.36A3.79,3.79,0,0,0,135.26,4,6.34,6.34,0,0,0,134.19,7.94Z"/><path class="cls-1" d="M6.63,27.63a3,3,0,0,0-2.32.94,3.73,3.73,0,0,0-.85,2.59,3.84,3.84,0,0,0,.8,2.61,2.84,2.84,0,0,0,2.29.93,6.14,6.14,0,0,0,1.81-.25v.48a6,6,0,0,1-1.94.28,3.33,3.33,0,0,1-2.61-1.07,4.38,4.38,0,0,1-1-3A4.71,4.71,0,0,1,3.31,29a3.31,3.31,0,0,1,1.31-1.41,3.88,3.88,0,0,1,2-.5,4.86,4.86,0,0,1,2.06.43l-.22.5A4,4,0,0,0,6.63,27.63Z"/><path class="cls-1" d="M16.11,27.25v5.08a2.78,2.78,0,0,1-.79,2.11,3,3,0,0,1-2.18.77A2.88,2.88,0,0,1,11,34.44a2.88,2.88,0,0,1-.77-2.13V27.25h.55v5.08a2.19,2.19,0,0,0,2.41,2.39,2.15,2.15,0,0,0,2.36-2.34V27.25Z"/><path class="cls-1" d="M19,31.68V35.1h-.55V27.25h1.87a3.5,3.5,0,0,1,2.16.54,1.91,1.91,0,0,1,.7,1.62,2.09,2.09,0,0,1-.42,1.33,2.28,2.28,0,0,1-1.26.78l2.13,3.58H23l-2-3.42Zm0-.48h1.5a2.35,2.35,0,0,0,1.54-.44,1.56,1.56,0,0,0,.55-1.31,1.51,1.51,0,0,0-.54-1.3,3,3,0,0,0-1.75-.41H19Z"/><path class="cls-1" d="M29,32.33H25.81L24.72,35.1h-.61l3.16-7.89h.35l3.09,7.89h-.62Zm-3-.5h2.81L27.75,29c-.09-.22-.2-.53-.32-.92a8.38,8.38,0,0,1-.32.93Z"/><path class="cls-1" d="M34.09,35.1h-.56V27.76H31v-.51h5.66v.51H34.09Z"/><path class="cls-1" d="M44.63,31.16a4.41,4.41,0,0,1-.94,3,3.59,3.59,0,0,1-5.15,0,4.44,4.44,0,0,1-.93-3,4.32,4.32,0,0,1,.94-2.95,3.61,3.61,0,0,1,5.15,0A4.41,4.41,0,0,1,44.63,31.16Zm-6.43,0A4,4,0,0,0,39,33.77a3,3,0,0,0,4.33,0A4,4,0,0,0,44,31.16a4,4,0,0,0-.75-2.6,3,3,0,0,0-4.32,0A4,4,0,0,0,38.2,31.16Z"/><path class="cls-1" d="M47.2,31.68V35.1h-.55V27.25h1.87a3.54,3.54,0,0,1,2.16.54,1.94,1.94,0,0,1,.7,1.62A2.09,2.09,0,0,1,51,30.74a2.36,2.36,0,0,1-1.26.78l2.13,3.58h-.66l-2-3.42Zm0-.48h1.5a2.37,2.37,0,0,0,1.54-.44,1.59,1.59,0,0,0,.55-1.31,1.51,1.51,0,0,0-.54-1.3,3,3,0,0,0-1.75-.41H47.2Z"/><path class="cls-1" d="M53.41,35.1V27.25H54V35.1Z"/><path class="cls-1" d="M60.18,32.33H57l-1.1,2.77h-.6l3.15-7.89h.35l3.1,7.89h-.62Zm-3-.5H60L58.93,29c-.09-.22-.2-.53-.32-.92-.1.34-.21.65-.32.93Z"/><path class="cls-1" d="M63.22,35.1V27.25h.55v7.33h3.74v.52Z"/><path class="cls-1" d="M75.51,27.63a3,3,0,0,0-2.32.94,3.73,3.73,0,0,0-.85,2.59,3.9,3.9,0,0,0,.8,2.61,2.86,2.86,0,0,0,2.29.93,6.09,6.09,0,0,0,1.81-.25v.48a5.94,5.94,0,0,1-1.94.28,3.34,3.34,0,0,1-2.61-1.07,4.38,4.38,0,0,1-1-3A4.58,4.58,0,0,1,72.2,29a3.23,3.23,0,0,1,1.3-1.41,3.88,3.88,0,0,1,2-.5,4.86,4.86,0,0,1,2.06.43l-.22.5A4,4,0,0,0,75.51,27.63Z"/><path class="cls-1" d="M85.82,31.16a4.41,4.41,0,0,1-.94,3,3.59,3.59,0,0,1-5.15,0,4.44,4.44,0,0,1-.93-3,4.32,4.32,0,0,1,.94-2.95,3.61,3.61,0,0,1,5.15,0A4.41,4.41,0,0,1,85.82,31.16Zm-6.43,0a4,4,0,0,0,.75,2.61,3,3,0,0,0,4.33,0,4,4,0,0,0,.75-2.62,4,4,0,0,0-.75-2.6,3,3,0,0,0-4.32,0A4,4,0,0,0,79.39,31.16Z"/><path class="cls-1" d="M93.55,35.1H93l-4.66-7h0c0,.83.07,1.45.07,1.88V35.1h-.53V27.25h.55l4.64,7h0c0-.65,0-1.26,0-1.84V27.25h.53Z"/><path class="cls-1" d="M100.33,33.07a1.86,1.86,0,0,1-.73,1.56,3,3,0,0,1-1.91.58,6,6,0,0,1-2.21-.32v-.55a5.53,5.53,0,0,0,2.16.36,2.47,2.47,0,0,0,1.54-.44,1.44,1.44,0,0,0,.56-1.17,1.28,1.28,0,0,0-.19-.73,1.64,1.64,0,0,0-.61-.54,8.12,8.12,0,0,0-1.24-.52A4.34,4.34,0,0,1,96,30.41a1.81,1.81,0,0,1-.46-1.28,1.76,1.76,0,0,1,.69-1.44A2.77,2.77,0,0,1,98,27.13a5.19,5.19,0,0,1,2.08.42l-.2.47a4.88,4.88,0,0,0-1.87-.4,2.21,2.21,0,0,0-1.39.4,1.32,1.32,0,0,0-.51,1.09,1.42,1.42,0,0,0,.16.72,1.39,1.39,0,0,0,.52.5,7.12,7.12,0,0,0,1.23.54,6.66,6.66,0,0,1,1.38.61,2,2,0,0,1,.68.68A1.85,1.85,0,0,1,100.33,33.07Z"/><path class="cls-1" d="M108,27.25v5.08a2.82,2.82,0,0,1-.78,2.11,3,3,0,0,1-2.19.77,2.65,2.65,0,0,1-2.89-2.9V27.25h.55v5.08a2.19,2.19,0,0,0,2.41,2.39,2.14,2.14,0,0,0,2.35-2.34V27.25Z"/><path class="cls-1" d="M110.34,35.1V27.25h.55v7.33h3.74v.52Z"/><path class="cls-1" d="M118.25,35.1h-.55V27.76h-2.55v-.51h5.65v.51h-2.55Z"/><path class="cls-1" d="M122.19,35.1V27.25h.54V35.1Z"/><path class="cls-1" d="M130.89,35.1h-.56l-4.65-7h0c0,.83.07,1.45.07,1.88V35.1h-.53V27.25h.55l4.64,7h0c0-.65,0-1.26,0-1.84V27.25h.53Z"/><path class="cls-1" d="M136.42,31.14h2.89v3.58a6.49,6.49,0,0,1-2.56.49,3.73,3.73,0,0,1-2.85-1.05,4.19,4.19,0,0,1-1-3,4.54,4.54,0,0,1,.49-2.12,3.41,3.41,0,0,1,1.41-1.43,4.24,4.24,0,0,1,2.1-.51,5.51,5.51,0,0,1,2.31.47l-.22.5a4.92,4.92,0,0,0-2.12-.47,3.27,3.27,0,0,0-2.46.95,3.61,3.61,0,0,0-.91,2.59,3.74,3.74,0,0,0,.86,2.67,3.41,3.41,0,0,0,2.54.89,5,5,0,0,0,1.85-.3V31.66h-2.34Z"/></svg>